<?xml version="1.0" encoding="UTF-8"?>
<svg id="Layer_1" data-name="Layer 1" xmlns="http://www.w3.org/2000/svg" width="159.97" height="159.95" viewBox="0 0 159.97 159.95">
  <defs>
    <style>
      .cls-1 {
        fill: #414fd0;
      }
    </style>
  </defs>
  <path class="cls-1" d="m80.3,0C101.29,0,122.27,0,143.26.02c10.82.01,16.68,5.83,16.69,16.63.03,42.14.02,84.27,0,126.41,0,10.79-5.91,16.85-16.59,16.86-42.3.04-84.61.05-126.91,0-10.45-.01-16.42-6.07-16.43-16.5C0,101.11,0,58.8.02,16.5.03,5.95,5.9.04,16.35.02c21.32-.03,42.64-.01,63.96-.01Zm-.16,133.11c14.82,0,29.64,0,44.46,0,8.27,0,10.65-2.85,7.87-10.82-1.31-3.76-3.74-7.67-6.77-10.18-4.41-3.65-9.54-6.75-14.84-8.91-14.37-5.86-29.45-6.56-44.68-4.47-11.53,1.59-22.44,4.97-31.49,12.7-5.15,4.4-8.49,9.77-7.79,16.97.32,3.3,1.51,4.86,5.28,4.81,15.98-.21,31.97-.09,47.96-.09Zm-.12-106.39c-14.79-.03-26.79,11.92-26.71,26.6.07,14.45,11.92,26.41,26.36,26.6,14.58.19,26.8-11.82,26.97-26.49.17-14.65-11.82-26.68-26.61-26.71Z"/>
</svg>