<?xml version="1.0" encoding="UTF-8"?>
<svg id="Layer_1" data-name="Layer 1" xmlns="http://www.w3.org/2000/svg" width="300" height="300" viewBox="0 0 300 300">
  <defs>
    <style>
      .cls-1 {
        fill: #fff;
      }
    </style>
  </defs>
  <g>
    <path class="cls-1" d="m69.15,84.06c.7,3.85,1.5,7.4,1.93,10.98.31,2.6.53,5.32.11,7.87-1.76,10.67-10.8,16.27-21.49,13.53-6.01-1.54-10.94-4.89-14.12-10.1-9.4-15.38-9.92-31.4-1.64-47.3,4.6-8.83,13.81-12.84,22.73-11.18,10.1,1.88,16.45,11.91,14.59,23.12-.4,2.4-.9,4.79-1.39,7.36.76.17,1.35.33,1.96.44,6.79,1.26,10.46,5.28,10.53,12.2.13,14.49.04,28.99.07,43.48,0,1.91-.7,3.39-2.7,3.39-2.18,0-2.77-1.64-2.77-3.61.02-13.22.01-26.43,0-39.65,0-1.09.02-2.19-.02-3.28-.16-4.91-2.27-6.99-7.8-7.25Z"/>
    <path class="cls-1" d="m100.82,84.07c-5.49.31-7.51,2.34-7.53,7.6-.06,13.76-.02,27.52-.03,41.28,0,3.52-.9,5.19-2.84,4.94-2.99-.38-2.6-2.77-2.6-4.85,0-12.85,0-25.69,0-38.54,0-10.81,1.94-13.38,12.45-16.22-.39-2.08-1.07-4.18-1.11-6.3-.06-3.78-.43-7.77.56-11.32,3.55-12.78,18.76-17.23,29.94-9.06,4.57,3.34,7.62,7.86,9.39,13.14,3.98,11.92,3.87,23.89-1,35.51-3.77,8.99-10.16,15.23-20.31,16.7-9.89,1.43-18.59-5.38-18.83-15.41-.12-5.03,1.08-10.08,1.68-15.13.08-.7.14-1.4.22-2.33Z"/>
  </g>
  <path class="cls-1" d="m190.32,37.58c0,4.37.16,8.54-.03,12.69-.49,10.62-1.96,21.07-5.77,31.1-1.44,3.8-2.88,7.7-3.48,11.69-1.07,7.14-.38,14.24,2.86,20.86,2.05,4.18,5.04,7.44,9.97,7.97,5.59.6,9.36-2.33,11.91-6.94,3.82-6.9,4.49-14.43,3.44-22.05-.92-6.68-2.98-13.24-3.5-19.93-.88-11.35-.96-22.77-1.36-34.16-.01-.34.12-.68.21-1.16h20.59c.1.4.26.73.26,1.06.13,14.62.09,29.25-2.57,43.68-1.11,6.03-3.39,11.92-2.52,18.12.63,4.53,1.57,9.14,3.24,13.37,1.89,4.78,5.57,8.09,11.21,8.05,5.51-.04,8.95-3.36,11.06-7.95,4.46-9.7,4.84-19.84.75-29.59-4.61-10.97-6.45-22.34-7.06-34.04-.22-4.16-.03-8.34-.03-12.87,1.15,0,2.18-.01,3.22,0,3.01.05,3.77.8,3.82,3.8.14,8.21.57,16.42,3.21,24.27,1.59,4.71,3.6,9.29,5.69,13.8,5.73,12.33,5.79,24.88,1.09,37.39-5.36,14.26-18,16.99-26.5,15.37-2.21-.42-4.3-1.62-6.34-2.67-5.81-2.98-11.89-3.51-17.32.05-9.31,6.1-22.27,2.22-28.58-6.15-6.58-8.73-8.29-18.72-7.55-29.32.4-5.78,2.29-11.15,4.91-16.25,5.7-11.1,8-22.95,8.13-35.32.05-4.63.46-5.02,5.08-4.96.53,0,1.06.05,1.97.09Z"/>
  <g>
    <path class="cls-1" d="m74.34,218.92c1.27.48,2.55.96,4.08,1.53.42-2.5.81-4.82,1.26-7.5,2.88,1.49,5.5,2.84,8.35,4.31.65-1.86,1.24-3.56,1.98-5.69.82,1.03,1.41,1.8,2.02,2.55,5.14,6.3,10.2,12.67,15.47,18.86,2.5,2.94,5.64,5.07,9.54,6.1,2.12.56,4.18,1.68,6.01,2.93,7.46,5.08,8.45,14.53,2.33,21.21-2.39,2.6-5.73,3.39-9.18,1.3-3.57-2.15-6.75-4.95-10.05-7.54-1.61-1.26-2.98-2.87-4.68-3.99-3.19-2.11-5.26-1.42-7.65,1.5-2.09,2.55-4.32,5.23-7.06,6.95-3.64,2.3-6.98.57-8.17-3.6-1.19-4.18.08-7.92,2.36-11.42.97-1.48,2.07-2.91,2.84-4.49,1.78-3.66,1.55-7.14-1.04-10.5-3.01-3.92-5.81-8.01-8.69-12.03.1-.16.19-.32.29-.47Z"/>
    <path class="cls-1" d="m84.84,209.97c-2.94-1.53-5.87-3.06-9.07-4.73-.47,2.85-.89,5.37-1.34,8.09-3.54-1.14-6.51-2.25-8.79-5.31-4.03-5.38-8.37-10.57-13.06-15.38-2.24-2.3-5.53-3.61-8.42-5.24-1.62-.91-3.48-1.38-5.08-2.32-8.02-4.7-9.83-12.91-4.62-20.62,2.53-3.75,6-5.01,9.94-2.81,3.47,1.94,6.54,4.61,9.71,7.06,1.62,1.26,2.95,2.89,4.59,4.12,3.57,2.68,6,2.07,8.69-1.46,1.73-2.27,3.62-4.65,5.96-6.16,4.56-2.96,8.78-.59,9.33,4.86.4,3.93-1,7.31-3.16,10.51-1.19,1.76-2.28,3.65-3.05,5.62-1.13,2.91-.5,5.69,1.34,8.21,2.32,3.17,4.49,6.46,6.96,9.51,1.64,2.02,1.54,3.8.09,6.05Z"/>
  </g>
  <g>
    <path class="cls-1" d="m248.61,214.55c-2.12,1.62-3.7,2.87-5.33,4.06-5.43,3.98-11.26,7.22-17.63,9.5-7.92,2.84-15.64,2.34-23.34-.75-6.81-2.73-12.96-6.53-18.66-11.11-.49-.4-1-.77-1.52-1.14-.09-.06-.26,0-.66,0,.48,2.99,1.06,5.93,1.4,8.91,1.21,10.51,2.35,21.03,3.5,31.55.06.56.08,1.13.06,1.69-.09,2.15-1.52,3.68-3.52,3.79-2.08.11-3.73-1.34-3.94-3.57-.54-5.69-.77-11.43-1.62-17.07-1.76-11.78-3.82-23.52-5.84-35.26-.18-1.04-.88-2.06-1.55-2.94-6.13-8.08-10.68-16.92-12.97-26.86-.11-.48-.23-.96-.32-1.45-.45-2.55.62-4.39,2.84-4.88,2.12-.47,3.83.9,4.58,3.36,1.21,3.97,2.17,8.09,3.94,11.8,7.62,15.97,19.4,27.89,35.46,35.51,8.04,3.81,16.05,3.64,23.85-.38,19.52-10.06,33.09-25.11,38.55-46.79.66-2.64,2.46-4.01,4.67-3.48,2.27.55,3.29,2.42,2.72,5.14-1.88,8.89-5.32,17.18-10.78,24.4-3.16,4.18-4.68,8.68-5.65,13.65-2.85,14.71-4.65,29.55-5.76,44.48-.22,2.9-1.72,4.51-4.07,4.34-2.26-.16-3.72-1.92-3.41-4.7,1.43-12.76,2.97-25.5,4.48-38.24.12-.97.28-1.94.52-3.56Z"/>
    <path class="cls-1" d="m226.21,240.73h0c-2.52-2.52-6.6-2.52-9.12,0l-2.09,2.09-2.09-2.09c-2.52-2.52-6.6-2.52-9.12,0s-2.52,6.6,0,9.12l2.09,2.09,9.12,9.12,9.12-9.12,2.09-2.09c2.52-2.52,2.52-6.6,0-9.12Z"/>
  </g>
  <path class="cls-1" d="m240.33,8.3c28.32,0,51.36,23.04,51.36,51.36v180.67c0,28.32-23.04,51.36-51.36,51.36H59.67c-28.32,0-51.36-23.04-51.36-51.36V59.67c0-28.32,23.04-51.36,51.36-51.36h180.67m0-8.3H59.67C26.71,0,0,26.71,0,59.67v180.67c0,32.95,26.71,59.67,59.67,59.67h180.67c32.95,0,59.67-26.71,59.67-59.67V59.67c0-32.95-26.71-59.67-59.67-59.67h0Z"/>
</svg>