<?xml version="1.0" encoding="UTF-8"?>
<svg id="Layer_1" data-name="Layer 1" xmlns="http://www.w3.org/2000/svg" width="135.94" height="78.6" viewBox="0 0 135.94 78.6">
  <defs>
    <style>
      .cls-1 {
        fill: #2d3791;
      }
    </style>
  </defs>
  <path class="cls-1" d="m0,78.6V0h33.32c3.62,0,6.96.76,10.02,2.27,3.06,1.51,5.7,3.51,7.92,5.98,2.21,2.47,3.95,5.28,5.2,8.41,1.25,3.14,1.88,6.29,1.88,9.46s-.59,6.55-1.77,9.69c-1.18,3.14-2.84,5.92-4.98,8.36-2.14,2.44-4.72,4.39-7.75,5.87-3.03,1.48-6.35,2.21-9.96,2.21H15.28v26.35H0Zm15.28-39.74h17.71c2.8,0,5.15-1.14,7.03-3.43,1.88-2.29,2.82-5.39,2.82-9.3,0-1.99-.3-3.78-.89-5.37-.59-1.59-1.37-2.93-2.32-4.04-.96-1.11-2.09-1.94-3.38-2.49-1.29-.55-2.6-.83-3.93-.83H15.28v25.46Z"/>
  <path class="cls-1" d="m68.97,78.6V.11h15.28v37.31L117.23,0h16.83l-30.11,34.87,31.99,43.73h-17.16l-24.46-33.98-10.07,10.52v23.47h-15.28Z"/>
</svg>