<?xml version="1.0" encoding="UTF-8"?>
<svg id="Layer_1" data-name="Layer 1" xmlns="http://www.w3.org/2000/svg" width="145.12" height="70.7" viewBox="0 0 145.12 70.7">
  <defs>
    <style>
      .cls-1 {
        fill: #2d3791;
        stroke: #2d3791;
        stroke-miterlimit: 10;
      }
    </style>
  </defs>
  <path class="cls-1" d="m4.56,63.78c-2.25,0-3.38-1.44-3.38-4.31,0-4.67,2.67-10.7,8.03-18.08-1.18-.51-1.9-1.03-2.15-1.56-.25-.53-.38-1.08-.38-1.65,0-1.74.42-2.62,1.27-2.62s1.69.99,2.53,2.96l.59.42c1.13-1.46,2.32-2.93,3.59-4.39,1.27-1.46,2.63-2.96,4.1-4.48l8.19-8.28c-.28-.28-.42-.53-.42-.76,0-.68.76-1.46,2.28-2.37,1.97-1.13,2.96-1.72,2.96-1.77.62-.68,1.77-1.01,3.46-1.01.96,0,1.58.23,1.86.68.06.06.08.14.08.25,0,.51-.48,1.16-1.44,1.94-4.39,3.66-8.41,7.25-12.04,10.77-3.63,3.52-6.91,7.05-9.84,10.6,1.41.39,3.21.59,5.41.59,1.46,0,3.04-.1,4.73-.3,1.69-.2,3.52-.49,5.49-.89,2.87-.56,5.81-1.45,8.83-2.66,3.01-1.21,5.81-2.69,8.41-4.44,2.59-1.75,4.69-3.7,6.29-5.87,1.61-2.17,2.41-4.46,2.41-6.89s-.63-4.42-1.9-6c-1.27-1.58-2.97-2.8-5.11-3.67-2.14-.87-4.56-1.48-7.27-1.82s-5.49-.51-8.36-.51c-2.2,0-4.62.23-7.27.68-2.65.45-5.28,1.1-7.9,1.94-2.62.84-5.01,1.87-7.18,3.08-2.17,1.21-3.92,2.59-5.24,4.14-1.32,1.55-1.99,3.22-1.99,5.03,0,1.3.37,2.48,1.1,3.55.79,1.07,1.66,1.72,2.62,1.94,1.01.23,1.52.62,1.52,1.18,0,.45-.4.59-1.18.42-1.13-.22-2.21-.73-3.25-1.52-1.04-.79-1.89-1.73-2.53-2.83-.65-1.1-.97-2.18-.97-3.25,0-2.65.92-4.97,2.75-6.97,1.83-2,4.21-3.67,7.14-5.03,2.93-1.35,6.07-2.41,9.42-3.17,3.35-.76,6.57-1.17,9.67-1.23,3.55-.11,7.04.01,10.48.38,3.43.37,6.55,1.06,9.33,2.07,2.79,1.01,5.01,2.39,6.67,4.14,1.66,1.75,2.49,3.94,2.49,6.59,0,2.82-.89,5.45-2.66,7.9-1.77,2.45-4.1,4.65-6.97,6.59-2.87,1.94-5.97,3.59-9.29,4.94-3.32,1.35-6.53,2.34-9.63,2.96-2.31.45-4.52.79-6.63,1.01-2.11.23-4.13.34-6.04.34-1.07,0-2.03-.03-2.87-.08-.84-.05-1.58-.14-2.2-.25-6.25,7.83-9.38,13.63-9.38,17.4,0,1.52.68,2.28,2.03,2.28.45,0,.76-.03.93-.08.96-.51,1.75-.76,2.37-.76.51,0,.76.17.76.51,0,.51-.84,1.15-2.53,1.94-.68.17-1.27.25-1.77.25Z"/>
  <path class="cls-1" d="m122.83,70.2c-.62,0-1.2-.04-1.73-.13-.54-.08-1.08-.18-1.65-.29-3.6-1.01-10.87-8.96-21.8-23.82l-4.98-7.43c-.96.45-1.92.82-2.87,1.1-.96.28-1.92.54-2.87.76-9.63,13.74-16.76,22.89-21.37,27.46-1.41,1.41-2.99,2.11-4.73,2.11-.96,0-1.77-.21-2.45-.63-.68-.42-1.01-.86-1.01-1.31,0-.62.31-.93.93-.93.11,0,.39.14.84.42.39.22.73.34,1.01.34.39,0,.98-.31,1.77-.93,2.93-2.82,6.14-6.45,9.63-10.9,3.49-4.45,7.24-9.66,11.24-15.63-2.99-.62-4.48-2.73-4.48-6.34,0-1.69.37-3.27,1.1-4.73.96-1.97,2.11-2.96,3.46-2.96,1.8,0,3.91,1.52,6.34,4.56,8-11.88,12-19.57,12-23.06,0-2.2-1.69-3.29-5.07-3.29-6.08,0-14.78,3.29-26.1,9.88-3.1,1.8-5.93,3.69-8.49,5.66-2.56,1.97-4.89,4.03-6.97,6.17-3.15,3.32-5.21,6.28-6.17,8.87-.73,1.8-1.1,3.38-1.1,4.73,0,2.59,1.46,3.89,4.39,3.89,1.75,0,4.45-.56,8.11-1.69,3.27-1.07,5.83-2.14,7.69-3.21.79-.45,1.44-.68,1.94-.68.39,0,.59.11.59.34,0,.4-.34.76-1.01,1.1l-5.41,2.53c-1.63.73-3.38,1.34-5.24,1.82-1.86.48-3.77.86-5.74,1.14-.45.06-.87.1-1.27.13-.39.03-.79.04-1.18.04-4.39,0-6.59-2-6.59-6,0-2.2.54-4.17,1.61-5.91.73-1.29,1.72-2.7,2.96-4.22,1.24-1.52,2.76-3.15,4.56-4.9,4.73-4.73,9.77-8.62,15.12-11.66,11.6-6.53,20.81-9.8,27.63-9.8,5.69,0,8.53,2.08,8.53,6.25s-4.17,12.45-12.5,24.67l1.94,2.62c3.55-1.58,7.15-3.49,10.81-5.74,2.54-1.58,5.49-3.67,8.87-6.29,3.38-2.62,7.18-5.79,11.41-9.5,4.34-3.77,7.83-6.77,10.48-9,2.65-2.22,4.42-3.65,5.32-4.27,1.13-.68,2.11-1.01,2.96-1.01.9,0,1.35.31,1.35.93,0,.56-.48,1.01-1.44,1.35-1.58.62-7.04,4.76-16.39,12.42-5.18,4.28-9.58,7.81-13.18,10.6-3.61,2.79-6.45,4.83-8.53,6.12-4.06,2.59-7.58,4.53-10.56,5.83l.17.17,6.76,8.7c4.67,5.97,8.71,10.57,12.12,13.81,3.41,3.24,6.15,5.17,8.24,5.79,1.8.51,3.52.76,5.15.76,4.34,0,7.15-1.66,8.45-4.98.28-.73.7-1.3,1.27-1.69.51-.51.76-.56.76-.17l-.17.59c-.39,1.41-1.08,2.66-2.07,3.76-.99,1.1-2.21,2.1-3.67,3-2.82,1.8-5.72,2.7-8.7,2.7Zm-38.61-31.85c0-.05.06-.14.17-.25l3.63-5.49c-.79-.79-1.52-1.35-2.2-1.69-.62-.62-1.21-.93-1.77-.93-.73,0-1.32.38-1.77,1.14-.45.76-.68,1.68-.68,2.75,0,2.14.87,3.63,2.62,4.48Zm4.05,0c1.07-.22,2.2-.65,3.38-1.27l-1.27-1.77-2.11,3.04Z"/>
</svg>