<?xml version="1.0" encoding="utf-8"?>
<!-- Generator: Adobe Illustrator 27.2.0, SVG Export Plug-In . SVG Version: 6.00 Build 0)  -->
<svg version="1.1" id="Layer_1" xmlns="http://www.w3.org/2000/svg" xmlns:xlink="http://www.w3.org/1999/xlink" x="0px" y="0px"
	 viewBox="0 0 300 300" style="enable-background:new 0 0 300 300;" xml:space="preserve">
<style type="text/css">
	.st0{fill:#FFFFFF;}
</style>
<path class="st0" d="M190.3,37.6c0,4.4,0.2,8.5,0,12.7c-0.5,10.6-2,21.1-5.8,31.1c-1.4,3.8-2.9,7.7-3.5,11.7
	c-1.1,7.1-0.4,14.2,2.9,20.9c2.1,4.2,5,7.4,10,8c5.6,0.6,9.4-2.3,11.9-6.9c3.8-6.9,4.5-14.4,3.4-22c-0.9-6.7-3-13.2-3.5-19.9
	c-0.9-11.3-1-22.8-1.4-34.2c0-0.3,0.1-0.7,0.2-1.2h20.6c0.1,0.4,0.3,0.7,0.3,1.1c0.1,14.6,0.1,29.2-2.6,43.7
	c-1.1,6-3.4,11.9-2.5,18.1c0.6,4.5,1.6,9.1,3.2,13.4c1.9,4.8,5.6,8.1,11.2,8.1c5.5,0,8.9-3.4,11.1-7.9c4.5-9.7,4.8-19.8,0.8-29.6
	c-4.6-11-6.4-22.3-7.1-34c-0.2-4.2,0-8.3,0-12.9c1.1,0,2.2,0,3.2,0c3,0,3.8,0.8,3.8,3.8c0.1,8.2,0.6,16.4,3.2,24.3
	c1.6,4.7,3.6,9.3,5.7,13.8c5.7,12.3,5.8,24.9,1.1,37.4c-5.4,14.3-18,17-26.5,15.4c-2.2-0.4-4.3-1.6-6.3-2.7
	c-5.8-3-11.9-3.5-17.3,0.1c-9.3,6.1-22.3,2.2-28.6-6.2c-6.6-8.7-8.3-18.7-7.6-29.3c0.4-5.8,2.3-11.2,4.9-16.2
	c5.7-11.1,8-23,8.1-35.3c0.1-4.6,0.5-5,5.1-5C188.9,37.5,189.4,37.5,190.3,37.6L190.3,37.6z"/>
<g>
	<path class="st0" d="M74.3,218.9c1.3,0.5,2.6,1,4.1,1.5c0.4-2.5,0.8-4.8,1.3-7.5c2.9,1.5,5.5,2.8,8.3,4.3c0.7-1.9,1.2-3.6,2-5.7
		c0.8,1,1.4,1.8,2,2.6c5.1,6.3,10.2,12.7,15.5,18.9c2.5,2.9,5.6,5.1,9.5,6.1c2.1,0.6,4.2,1.7,6,2.9c7.5,5.1,8.4,14.5,2.3,21.2
		c-2.4,2.6-5.7,3.4-9.2,1.3c-3.6-2.1-6.8-5-10.1-7.5c-1.6-1.3-3-2.9-4.7-4c-3.2-2.1-5.3-1.4-7.7,1.5c-2.1,2.6-4.3,5.2-7.1,6.9
		c-3.6,2.3-7,0.6-8.2-3.6c-1.2-4.2,0.1-7.9,2.4-11.4c1-1.5,2.1-2.9,2.8-4.5c1.8-3.7,1.6-7.1-1-10.5c-3-3.9-5.8-8-8.7-12
		C74.2,219.2,74.2,219.1,74.3,218.9L74.3,218.9z"/>
	<path class="st0" d="M84.8,210c-2.9-1.5-5.9-3.1-9.1-4.7c-0.5,2.9-0.9,5.4-1.3,8.1c-3.5-1.1-6.5-2.2-8.8-5.3
		c-4-5.4-8.4-10.6-13.1-15.4c-2.2-2.3-5.5-3.6-8.4-5.2c-1.6-0.9-3.5-1.4-5.1-2.3c-8-4.7-9.8-12.9-4.6-20.6c2.5-3.8,6-5,9.9-2.8
		c3.5,1.9,6.5,4.6,9.7,7.1c1.6,1.3,3,2.9,4.6,4.1c3.6,2.7,6,2.1,8.7-1.5c1.7-2.3,3.6-4.6,6-6.2c4.6-3,8.8-0.6,9.3,4.9
		c0.4,3.9-1,7.3-3.2,10.5c-1.2,1.8-2.3,3.6-3.1,5.6c-1.1,2.9-0.5,5.7,1.3,8.2c2.3,3.2,4.5,6.5,7,9.5C86.4,205.9,86.3,207.7,84.8,210
		L84.8,210z"/>
</g>
<g>
	<path class="st0" d="M248.6,214.6c-2.1,1.6-3.7,2.9-5.3,4.1c-5.4,4-11.3,7.2-17.6,9.5c-7.9,2.8-15.6,2.3-23.3-0.8
		c-6.8-2.7-13-6.5-18.7-11.1c-0.5-0.4-1-0.8-1.5-1.1c-0.1-0.1-0.3,0-0.7,0c0.5,3,1.1,5.9,1.4,8.9c1.2,10.5,2.4,21,3.5,31.6
		c0.1,0.6,0.1,1.1,0.1,1.7c-0.1,2.1-1.5,3.7-3.5,3.8c-2.1,0.1-3.7-1.3-3.9-3.6c-0.5-5.7-0.8-11.4-1.6-17.1
		c-1.8-11.8-3.8-23.5-5.8-35.3c-0.2-1-0.9-2.1-1.6-2.9c-6.1-8.1-10.7-16.9-13-26.9c-0.1-0.5-0.2-1-0.3-1.4c-0.4-2.6,0.6-4.4,2.8-4.9
		c2.1-0.5,3.8,0.9,4.6,3.4c1.2,4,2.2,8.1,3.9,11.8c7.6,16,19.4,27.9,35.5,35.5c8,3.8,16.1,3.6,23.9-0.4
		c19.5-10.1,33.1-25.1,38.5-46.8c0.7-2.6,2.5-4,4.7-3.5c2.3,0.6,3.3,2.4,2.7,5.1c-1.9,8.9-5.3,17.2-10.8,24.4
		c-3.2,4.2-4.7,8.7-5.6,13.6c-2.9,14.7-4.6,29.6-5.8,44.5c-0.2,2.9-1.7,4.5-4.1,4.3c-2.3-0.2-3.7-1.9-3.4-4.7
		c1.4-12.8,3-25.5,4.5-38.2C248.2,217.1,248.4,216.2,248.6,214.6L248.6,214.6z"/>
	<path class="st0" d="M226.2,240.7L226.2,240.7c-2.5-2.5-6.6-2.5-9.1,0l-2.1,2.1l-2.1-2.1c-2.5-2.5-6.6-2.5-9.1,0s-2.5,6.6,0,9.1
		l2.1,2.1l9.1,9.1l9.1-9.1l2.1-2.1C228.7,247.3,228.7,243.2,226.2,240.7L226.2,240.7z"/>
</g>
<path class="st0" d="M240.3,8.3c28.3,0,51.4,23,51.4,51.4v180.7c0,28.3-23,51.4-51.4,51.4H59.7c-28.3,0-51.4-23-51.4-51.4V59.7
	c0-28.3,23-51.4,51.4-51.4L240.3,8.3 M240.3,0H59.7C26.7,0,0,26.7,0,59.7v180.7c0,33,26.7,59.7,59.7,59.7h180.7
	c33,0,59.7-26.7,59.7-59.7V59.7C300,26.7,273.3,0,240.3,0L240.3,0L240.3,0z"/>
<path class="st0" d="M58.5,126.2c-1.1,0-2.3-0.2-3.5-0.5c-0.7-0.2-1.4-0.4-2.1-0.5c-0.7-0.2-1.4-0.3-2-0.5c-3.5-0.9-6-2.8-7.6-5.7
	c-0.4-0.7-1-1.4-1.7-2c-4.1-3.6-6.7-7.1-8-11.1c-0.2-0.6-0.3-1.2-0.4-1.8c-0.1-0.4-0.2-0.8-0.3-1.2c-0.1-0.4-0.2-0.7-0.3-1.1
	c-0.3-1-0.5-2-0.9-2.8c-2.8-6.2-3.8-12.3-2.8-18.7c0.1-1,0-2.1-0.1-3.3c0-0.3-0.1-0.6-0.1-0.9c-0.5-6.2,0.1-11.2,2-15.7
	c0.2-0.6,0.3-1.2,0.4-2c0.1-0.6,0.2-1.2,0.3-1.8c1.7-6,5.3-10,10.7-12c1.3-0.5,2.7-0.7,4.2-0.7c0.8,0,1.7,0.1,2.5,0.2
	c3,0.5,5.3,2.2,6.6,4.9c1.2,2.6,2.6,4.6,4.2,6.1c1.5,1.4,2.1,3.4,2.7,5.1c0.3,0.9,0.9,1.7,1.3,2.3c0.9,1.2,1.8,2.4,2.7,3.6
	c0.7,0.9,1.4,1.9,2.1,2.8c0.6,0.8,1.1,1.6,1.5,2.3c1.6,2.9,4.1,4.5,7.6,4.9c1.1,0.1,2,0.2,3,0.2c1.5,0,2.8-0.1,4.1-0.4
	c2.4-0.5,4.3-1.8,5.7-3.9c2-3,3.8-5.7,5.8-8.3c1.2-1.5,2.1-2.7,2.5-4.3c0.7-2.6,2.4-4.4,3.8-5.8c0.7-0.7,1.2-1.4,1.5-2.1
	c2-4.9,5.8-7.7,10.3-7.7c2,0,4.1,0.6,6.2,1.7c5.2,2.9,8.3,7.3,9.1,13.3c0.1,0.6,0.2,1.2,0.4,1.8c1.4,3.3,2.2,7.1,2.3,11.6l0,0.1
	c0,0.5-0.1,1.1-0.2,1.6c-0.1,1.2-0.3,2.5-0.3,3.7c-0.1,1.3,0,2.7,0.1,4c0.7,5.9-0.3,11.7-3.1,17.6c-0.5,1-0.8,2.1-0.9,3.2
	c-0.7,4.9-3,9.2-7.2,13.1c-1.7,1.6-3,2.9-4.1,4.6c-1.2,2-3.3,3.5-6,4.3c-2.1,0.6-4.5,1.2-7.1,1.6c-0.5,0.1-0.9,0.1-1.4,0.1
	c-1,0-2-0.1-2.9-0.4c-4.3-1.2-9-6.8-9.6-11.3c-0.3-2.1,0.2-3.8,1.4-5.2c0.3-0.3,0.4-0.7,0.1-1.7c-0.6-1.9-2.4-3.2-4.5-3.2
	c-0.5,0-1.1,0.1-1.6,0.3c-1.6,0.6-3.2,0.8-4.8,0.8c-1.6,0-3.2-0.3-4.7-0.8c-0.5-0.2-1.1-0.3-1.6-0.3c-2.4,0-4.4,1.7-4.6,3.8
	c0,0.4,0.1,0.9,0.4,1.3c1.1,1.7,1.5,3.6,1,5.8c-0.4,2-1.3,4.8-4.2,6.6c0,0-0.1,0-0.2,0.2C64.4,124.8,61.7,126.2,58.5,126.2z
	 M94.6,112.5c0,0,0,0.1-0.1,0.2c-0.4,1.3,0.5,4,1.6,4.9c0.9,0.7,1.6,1.4,2.2,2c1.2,1.2,2.4,1.9,3.9,1.9l0,0c0.4,0,0.8,0,1.3-0.1
	c2.3-0.5,4.2-1,5.9-1.4c1.6-0.5,2.9-1.4,3.9-3c0.8-1.2,1.7-2.3,2.7-3.3l0.2-0.2c0.4-0.5,0.9-0.8,1.3-1.2c0.3-0.3,0.7-0.6,1-0.9
	c2.9-3.1,4.5-6,4.8-9.3c0.2-1.6,0.7-3.2,1.5-4.9c2.4-5,3.2-9.9,2.6-15.1c-0.2-1.4-0.2-2.9-0.2-4.7c0-1.2,0.2-2.4,0.3-3.6
	c0.1-0.5,0.1-1,0.1-1.5c-0.1-3.9-0.7-7.1-1.9-9.9c-0.4-0.8-0.6-1.8-0.7-2.7c-0.2-2.6-1.2-4.8-3-6.9c-2.1-2.5-4.5-3.8-7.3-4
	c-0.2,0-0.4,0-0.6,0c-2.3,0-3.9,0.9-4.9,2.9c-0.1,0.3-0.3,0.5-0.4,0.8c-0.2,0.5-0.4,1-0.7,1.4l-0.2,0.4c-0.6,0.9-1.2,1.9-2.1,2.7
	c-1.6,1.5-2.6,3.1-3.1,4.9c-0.4,1.5-1.1,2.8-2.2,3.9l-0.3,0.3c-0.3,0.4-0.7,0.7-0.9,1c-1.8,2.6-3.6,5.2-5.4,7.8
	c-1.9,2.8-4.4,4.6-7.6,5.6c-1.8,0.5-3.8,0.8-6.3,0.8c-0.4,0-0.8,0-1.2,0c-6.3-0.2-10.7-2.7-13.5-7.8c-1.7-3-3.4-5.4-5.4-7.4
	c-1.2-1.3-2-2.7-2.5-4.3c-0.4-1.6-1.3-3.1-2.9-4.6c-1-0.9-1.7-2-2.3-3.1l-0.1-0.1c-0.3-0.5-0.6-1.1-0.9-1.6c-0.3-0.5-0.5-1-0.8-1.5
	c-0.6-1-1.5-1.6-2.7-1.8c-0.6-0.1-1.2-0.2-1.8-0.2c-1.4,0-2.7,0.3-3.8,0.9c-3.6,2-5.8,5.1-6.6,9.1l-0.1,0.7c-0.2,1-0.4,2.1-0.8,3
	c-1.5,3.7-2.1,7.7-1.6,12.7l0.1,1c0.2,2,0.4,4,0,6.1c-0.1,0.4-0.1,0.8-0.1,1.3l0,0.3c-0.3,4.4,0.7,8.7,2.9,13.6
	c0.5,1.2,0.9,2.5,1.2,4c0.4,2.5,1.2,4.6,2.4,6.5c1.4,2.1,3.2,3.8,4.9,5.4c1.1,1,2,2,2.6,3.1c1,1.8,2.5,2.9,4.6,3.5
	c0.5,0.1,1,0.2,1.5,0.4c0.9,0.2,1.9,0.4,2.8,0.7c0.8,0.2,1.5,0.3,2.2,0.3c1.9,0,3.4-0.9,4.7-2.6c0.2-0.3,0.5-0.6,0.9-0.9
	c1.5-0.8,2.1-2.1,2.3-4.6c0-0.3-0.1-0.8-0.3-1.1c-1-1.3-1.4-2.8-1.3-4.5c0.4-4.6,4.5-8.3,9.3-8.3c1.1,0,2.2,0.2,3.2,0.6
	c1,0.4,2.1,0.6,3.1,0.6c1,0,2.1-0.2,3.1-0.5c1.1-0.4,2.1-0.5,3.2-0.5c4,0,7.6,2.5,8.9,6.2C96.5,108.5,96.2,110.7,94.6,112.5
	L94.6,112.5z"/>
</svg>
