<?xml version="1.0" encoding="UTF-8"?>
<svg id="Layer_1" data-name="Layer 1" xmlns="http://www.w3.org/2000/svg" width="479.33" height="335.67" viewBox="0 0 479.33 335.67">
  <defs>
    <style>
      .cls-1 {
        fill: #414fd0;
      }
    </style>
  </defs>
  <path class="cls-1" d="m1.44,24C.88,29.62.06,34.01.06,38.4-.02,124.58,0,210.77,0,296.95c0,23.74,14.89,38.7,38.55,38.7,58.73,0,117.47,0,176.2,0,75.87,0,151.74.02,227.61-.02,20.68-.01,36.86-15.25,36.89-35.31.13-88.18.08-176.36,0-264.55,0-3.53-.96-7.06-1.58-11.37-2.15,1.73-3.46,2.71-4.7,3.79-66.33,57.59-132.66,115.17-198.97,172.78-20.94,18.19-47.82,18.35-68.89.06C144.55,148.47,84.08,95.81,23.57,43.19c-6.99-6.08-14-12.14-22.13-19.19ZM16.67,5.81c1.18.85,1.9,1.29,2.52,1.84,67.28,58.54,134.54,117.11,201.85,175.62,12.56,10.92,24.43,10.78,37.07-.19,65.08-56.51,130.14-113.04,195.21-169.56,2.94-2.56,5.84-5.17,8.76-7.75-.01-.59-.03-1.17-.04-1.76-6.23-1.29-12.42-3.39-18.7-3.69-12.29-.59-24.62-.17-36.93-.17-122.81,0-245.62.01-368.43-.03-7.31,0-14.19,1.23-21.3,5.7Z"/>
</svg>