<?xml version="1.0" encoding="UTF-8"?>
<svg id="Layer_1" data-name="Layer 1" xmlns="http://www.w3.org/2000/svg" width="335.74" height="335.67" viewBox="0 0 335.74 335.67">
  <defs>
    <style>
      .cls-1 {
        fill: #414fd0;
      }
    </style>
  </defs>
  <path class="cls-1" d="m335.42,288.19c0,8.95.85,18.01-.2,26.84-1.57,13.19-10.23,20.13-23.53,20.6-12.38.43-24.19-2.88-35.95-5.94C146.49,296.13,43.35,194.7,7.74,65.95,4.42,53.92,2.52,41.49.29,29.18c-.56-3.09-.23-6.48.32-9.62C2.7,7.67,11.27.16,24.61.02c15.86-.16,31.75.56,47.6,1.43,6.99.38,12.05,4.7,14.37,11.32,7.36,21.04,14.49,42.16,21.67,63.26,1.49,4.38.44,8.55-1.98,12.19-3.95,5.93-8.43,11.5-12.4,17.41-3.57,5.33-7.23,10.69-10,16.44-3.92,8.15-2.97,16.34,1.89,23.99,27.09,42.66,61.99,77.49,104.73,104.43,7.88,4.97,16.3,5.2,24.33.97,6.57-3.46,12.58-7.99,18.75-12.17,4.66-3.16,9.07-6.69,13.79-9.75,4.49-2.91,9.25-3.23,14.49-1.38,19.73,6.94,39.56,13.58,59.34,20.35,8.97,3.07,13.09,8.77,13.43,18.29.25,7.13.62,14.26.94,21.39-.06,0-.12,0-.17,0Z"/>
</svg>