<?xml version="1.0" encoding="UTF-8"?>
<svg id="Layer_1" data-name="Layer 1" xmlns="http://www.w3.org/2000/svg" width="157.14" height="231.6" viewBox="0 0 157.14 231.6">
  <defs>
    <style>
      .cls-1 {
        fill: #414fd0;
      }
    </style>
  </defs>
  <g>
    <path class="cls-1" d="m69.4,99.55c0,1.94.19,3.39.57,4.36.38.97,1.26,1.66,2.65,2.07.76.21,1.52.35,2.28.41.76.07,1.43.16,2.02.26.59.1,1.07.33,1.45.67.38.35.57.9.57,1.66,0,1.59-.87,2.39-2.59,2.39-1.38,0-3.06-.1-5.02-.31-1.97-.21-4.21-.31-6.72-.31-3.61,0-6.67.09-9.17.26-2.51.17-4.53.26-6.05.26-1.18,0-2.04-.14-2.59-.41-.55-.28-.83-.9-.83-1.87,0-.83.16-1.43.47-1.82.31-.38.78-.64,1.4-.78.62-.14,1.36-.22,2.23-.26.86-.03,1.85-.12,2.96-.26,1.59-.21,2.58-.73,2.96-1.56.38-.83.57-2.28.57-4.36v-41.49c0-1.24-.12-2.16-.36-2.75-.24-.59-.81-.88-1.71-.88-.55,0-1.18.14-1.87.41-.69.28-1.44.59-2.23.93-.8.35-1.63.66-2.49.93-.87.28-1.71.41-2.54.41-1.18,0-1.76-.69-1.76-2.07,0-.62.19-1.12.57-1.5.38-.38.97-.73,1.76-1.04.79-.31,1.78-.64,2.96-.99,1.17-.35,2.56-.79,4.15-1.35,4.94-1.8,8.59-3.34,10.98-4.62,2.38-1.28,3.78-1.92,4.19-1.92.82,0,1.23.59,1.23,1.76v53.73Z"/>
    <path class="cls-1" d="m109.94,51.91c2.42,2.61,3.63,6.04,3.63,10.26s-1.27,7.54-3.8,10.1c-2.53,2.56-6.02,3.84-10.47,3.84-2,0-3.81-.35-5.42-1.04-1.61-.69-2.99-1.65-4.13-2.88-1.14-1.22-2.03-2.7-2.67-4.42-.64-1.72-.96-3.62-.96-5.67s.33-4.03,1-5.76c.67-1.72,1.6-3.21,2.79-4.46,1.2-1.25,2.63-2.21,4.3-2.88,1.67-.67,3.5-1,5.51-1,4.39,0,7.8,1.31,10.22,3.92Zm-14.39.92c-.95,1.78-1.42,4.34-1.42,7.68,0,4.34.58,7.66,1.75,9.97,1.17,2.31,2.61,3.46,4.34,3.46,1.61,0,2.89-.89,3.84-2.67.95-1.78,1.42-4.37,1.42-7.76,0-4.23-.57-7.51-1.71-9.85-1.14-2.34-2.6-3.5-4.38-3.5-1.61,0-2.89.89-3.84,2.67Z"/>
  </g>
  <path class="cls-1" d="m79.45,178.72c-5.51,15.83-10.52,30.28-15.57,44.72-3.26,9.31-10.3,11.08-16.16,3.11-6.19-8.43-12.7-10.88-22.1-6.06-3.54,1.82-7.48,1.94-10.66-1.29-3.18-3.22-2.5-6.88-1.24-10.71,6.78-20.72,13.5-41.45,20.21-62.19,2.14-6.61-3.82-18.35-10.37-20.64-2.35-.82-4.76-1.56-6.99-2.65-5.76-2.83-8.26-7.59-7.48-13.9.23-1.82.37-3.69.96-5.41,1.71-5.02.15-8.81-3.35-12.63-8.95-9.77-8.95-15.26,0-24.98,3.52-3.82,4.56-7.52,3.4-12.64-2.93-12.86-.19-17.61,12.53-21.57,5.05-1.57,7.65-4.34,9.21-9.28,4.04-12.76,8.31-15.11,21.68-12.35,4.78.99,8.54.19,12.28-3.26,10.12-9.3,15.31-9.35,25.37-.08,3.93,3.62,7.79,4.31,12.73,3.25,12.74-2.74,17.2-.2,21.24,12.34,1.57,4.87,4.1,7.76,9.17,9.33,12.9,3.99,15.35,8.28,12.57,21.51-1.06,5.04-.16,8.78,3.39,12.66,9.18,10.03,9.14,15.22-.17,25.36-3.45,3.76-4.22,7.39-3.23,12.23,2.77,13.64.48,17.57-12.81,21.83-4.57,1.47-6.77,4.16-8.76,8.49-3.03,6.59-2.47,12.35-.19,18.93,6.37,18.39,12.1,37.01,18.18,55.5,1.26,3.83,2.02,7.46-1.1,10.73-3.13,3.28-7.02,3.27-10.61,1.44-9.32-4.73-16.47-2.99-22.05,6.01-1.97,3.18-5.04,5.4-9.27,4.6-4.71-.89-6.14-4.57-7.35-8.53-4.31-14.15-8.68-28.28-13.47-43.88Zm31.3-40.9c2.34.5,3.49-2,4.09-4.71,2.2-9.98,8.15-16.06,18.19-18.17,3.98-.84,5.61-3.19,4.26-7.3-3.12-9.48-1.27-17.69,6.36-24.4,3.46-3.04,3.46-6.24.02-9.28-7.42-6.56-9.61-14.55-6.49-23.9,1.53-4.57-.19-7.06-4.59-7.99-9.67-2.05-15.49-7.89-17.53-17.51-.97-4.57-3.67-6.04-8.02-4.61-9.19,3.03-17.05,1.09-23.5-6.19-3.38-3.82-6.71-3.67-10.04.05-6.49,7.25-14.34,9.14-23.53,6.12-3.98-1.31-6.94-.25-7.85,4.19-2.05,10.08-8.15,16.07-18.16,18.13-4.36.89-5.27,3.76-4.12,7.45,2.98,9.58.99,17.69-6.56,24.4-3.26,2.9-3.34,5.99-.05,8.92,7.54,6.7,9.63,14.79,6.6,24.38-1.28,4.06.18,6.79,4.51,7.68,9.89,2.04,15.72,8.05,17.74,17.9.91,4.43,3.87,5.61,7.81,4.29,9.44-3.17,17.35-.93,23.92,6.39,3.34,3.72,6.53,3.25,9.66-.21,6.49-7.18,14.3-9.3,23.51-6.21.78.26,1.64.27,3.77.59Zm-55.95,80.98c6.57-17.59,13.43-34.92,19.28-52.58,1.07-3.23-1-8.67-3.41-11.64-5.35-6.61-12.39-10.48-21.43-6.85-.6.24-1.34.35-1.97.24-3.38-.58-4.51,1.3-5.4,4.19-5.31,17.16-10.79,34.27-16.21,51.4-.68,2.15-1.31,4.31-2,6.61,6.13-1.17,12.31-4.2,17.21-2.79,5.16,1.49,9.1,7.22,13.94,11.42Zm47.75.63c3.14-3.37,5.77-6.05,8.22-8.88,3.05-3.52,6.54-4.8,11.12-3.18,3.63,1.28,7.41,2.12,11.81,3.34-6.86-20.68-13.39-40.41-20.03-60.11-.34-1.01-1.54-2.22-2.54-2.44-8.57-1.89-17.15-3.44-23.44,5.17-.19.26-.5.46-.8.59-2.57,1.13-2.54,3-1.81,5.35,1.72,5.56,3.25,11.18,4.87,16.77,4.1,14.16,8.21,28.32,12.59,43.4Z"/>
</svg>