<?xml version="1.0" encoding="UTF-8"?>
<svg xmlns="http://www.w3.org/2000/svg" width="157.14" height="231.6" viewBox="0 0 157.14 231.6">
  <defs>
    <style>
      .cls-1 {
        fill: #414fd0;
      }
    </style>
  </defs>
  <g id="Layer_1" data-name="Layer 1">
    <path class="cls-1" d="m79.45,178.72c-5.51,15.83-10.52,30.28-15.57,44.72-3.26,9.31-10.3,11.08-16.16,3.11-6.19-8.43-12.7-10.88-22.1-6.06-3.54,1.82-7.48,1.94-10.66-1.29-3.18-3.22-2.5-6.88-1.24-10.71,6.78-20.72,13.5-41.45,20.21-62.19,2.14-6.61-3.82-18.35-10.37-20.64-2.35-.82-4.76-1.56-6.99-2.65-5.76-2.83-8.26-7.59-7.48-13.9.23-1.82.37-3.69.96-5.41,1.71-5.02.15-8.81-3.35-12.63-8.95-9.77-8.95-15.26,0-24.98,3.52-3.82,4.56-7.52,3.4-12.64-2.93-12.86-.19-17.61,12.53-21.57,5.05-1.57,7.65-4.34,9.21-9.28,4.04-12.76,8.31-15.11,21.68-12.35,4.78.99,8.54.19,12.28-3.26,10.12-9.3,15.31-9.35,25.37-.08,3.93,3.62,7.79,4.31,12.73,3.25,12.74-2.74,17.2-.2,21.24,12.34,1.57,4.87,4.1,7.76,9.17,9.33,12.9,3.99,15.35,8.28,12.57,21.51-1.06,5.04-.16,8.78,3.39,12.66,9.18,10.03,9.14,15.22-.17,25.36-3.45,3.76-4.22,7.39-3.23,12.23,2.77,13.64.48,17.57-12.81,21.83-4.57,1.47-6.77,4.16-8.76,8.49-3.03,6.59-2.47,12.35-.19,18.93,6.37,18.39,12.1,37.01,18.18,55.5,1.26,3.83,2.02,7.46-1.1,10.73-3.13,3.28-7.02,3.27-10.61,1.44-9.32-4.73-16.47-2.99-22.05,6.01-1.97,3.18-5.04,5.4-9.27,4.6-4.71-.89-6.14-4.57-7.35-8.53-4.31-14.15-8.68-28.28-13.47-43.88Zm31.3-40.9c2.34.5,3.49-2,4.09-4.71,2.2-9.98,8.15-16.06,18.19-18.17,3.98-.84,5.61-3.19,4.26-7.3-3.12-9.48-1.27-17.69,6.36-24.4,3.46-3.04,3.46-6.24.02-9.28-7.42-6.56-9.61-14.55-6.49-23.9,1.53-4.57-.19-7.06-4.59-7.99-9.67-2.05-15.49-7.89-17.53-17.51-.97-4.57-3.67-6.04-8.02-4.61-9.19,3.03-17.05,1.09-23.5-6.19-3.38-3.82-6.71-3.67-10.04.05-6.49,7.25-14.34,9.14-23.53,6.12-3.98-1.31-6.94-.25-7.85,4.19-2.05,10.08-8.15,16.07-18.16,18.13-4.36.89-5.27,3.76-4.12,7.45,2.98,9.58.99,17.69-6.56,24.4-3.26,2.9-3.34,5.99-.05,8.92,7.54,6.7,9.63,14.79,6.6,24.38-1.28,4.06.18,6.79,4.51,7.68,9.89,2.04,15.72,8.05,17.74,17.9.91,4.43,3.87,5.61,7.81,4.29,9.44-3.17,17.35-.93,23.92,6.39,3.34,3.72,6.53,3.25,9.66-.21,6.49-7.18,14.3-9.3,23.51-6.21.78.26,1.64.27,3.77.59Zm-55.95,80.98c6.57-17.59,13.43-34.92,19.28-52.58,1.07-3.23-1-8.67-3.41-11.64-5.35-6.61-12.39-10.48-21.43-6.85-.6.24-1.34.35-1.97.24-3.38-.58-4.51,1.3-5.4,4.19-5.31,17.16-10.79,34.27-16.21,51.4-.68,2.15-1.31,4.31-2,6.61,6.13-1.17,12.31-4.2,17.21-2.79,5.16,1.49,9.1,7.22,13.94,11.42Zm47.75.63c3.14-3.37,5.77-6.05,8.22-8.88,3.05-3.52,6.54-4.8,11.12-3.18,3.63,1.28,7.41,2.12,11.81,3.34-6.86-20.68-13.39-40.41-20.03-60.11-.34-1.01-1.54-2.22-2.54-2.44-8.57-1.89-17.15-3.44-23.44,5.17-.19.26-.5.46-.8.59-2.57,1.13-2.54,3-1.81,5.35,1.72,5.56,3.25,11.18,4.87,16.77,4.1,14.16,8.21,28.32,12.59,43.4Z"/>
  </g>
  <g id="Layer_2" data-name="Layer 2">
    <g>
      <path class="cls-1" d="m56.04,95.9c-.34.41-.51.79-.51,1.13,0,.55.31.82.92.82h16.06c1.48,0,2.54-.32,3.19-.98.64-.65,1.1-1.39,1.37-2.21s.5-1.56.71-2.21c.2-.65.64-.98,1.32-.98.4,0,.76.21,1.06.62.3.41.46.92.46,1.54v1.75l-.4,13.67c-.07,1.44-.2,2.28-.4,2.52s-.94.36-2.23.36c-1.35,0-3.34-.07-5.97-.21-2.63-.14-5.9-.21-9.8-.21h-14.7c-1.37,0-2.31-.12-2.83-.36-.51-.24-.77-.77-.77-1.59,0-1.3,1.04-3.48,3.13-6.53,2.09-3.05,4.91-7.24,8.48-12.59,1.99-2.94,3.77-5.69,5.34-8.22,1.58-2.53,2.93-4.9,4.06-7.09,1.13-2.19,1.99-4.26,2.57-6.22.58-1.95.87-3.85.87-5.7,0-3.77-.86-6.76-2.57-8.99-1.71-2.23-3.97-3.34-6.78-3.34-3.36,0-6.27,1.71-8.73,5.14-.69.96-1.25,1.82-1.7,2.57-.45.75-.82,1.39-1.13,1.9-.31.51-.62.91-.92,1.18-.31.27-.67.41-1.08.41-.82,0-1.23-.58-1.23-1.75,0-.68.39-1.85,1.18-3.49.79-1.64,2.04-3.42,3.75-5.34,3.97-4.38,8.8-6.58,14.49-6.58s9.8,1.56,12.87,4.68c3.07,3.12,4.6,7.31,4.6,12.59,0,5.62-1.99,10.65-5.97,15.11-1.21,1.37-2.56,2.69-4.05,3.96-1.48,1.27-2.99,2.55-4.53,3.85-1.54,1.3-3.04,2.67-4.52,4.11-1.47,1.44-2.83,2.98-4.06,4.62l-1.54,2.06Z"/>
      <path class="cls-1" d="m109.85,52.01c2.4,2.59,3.6,5.98,3.6,10.17s-1.25,7.47-3.76,10c-2.51,2.54-5.97,3.8-10.37,3.8-1.98,0-3.77-.34-5.37-1.03-1.6-.69-2.96-1.64-4.09-2.85-1.13-1.21-2.01-2.67-2.65-4.38-.63-1.71-.95-3.58-.95-5.62s.33-3.99.99-5.7c.66-1.71,1.58-3.18,2.77-4.42,1.18-1.24,2.6-2.19,4.26-2.85,1.65-.66,3.47-.99,5.46-.99,4.35,0,7.73,1.3,10.13,3.88Zm-14.26.91c-.94,1.76-1.41,4.3-1.41,7.6,0,4.3.58,7.59,1.74,9.88,1.16,2.29,2.59,3.43,4.3,3.43,1.6,0,2.86-.88,3.8-2.65.94-1.76,1.41-4.33,1.41-7.69,0-4.19-.57-7.44-1.69-9.75-1.13-2.31-2.58-3.47-4.34-3.47-1.6,0-2.87.88-3.8,2.65Z"/>
    </g>
  </g>
</svg>