<?xml version="1.0" encoding="UTF-8"?>
<svg id="Layer_1" data-name="Layer 1" xmlns="http://www.w3.org/2000/svg" width="300" height="300" viewBox="0 0 300 300">
  <defs>
    <style>
      .cls-1 {
        fill: #fff;
      }
    </style>
  </defs>
  <path class="cls-1" d="m258.24,208.25h0c-6.33-6.33-16.58-6.33-22.91,0l-5.24,5.24-5.24-5.24c-6.33-6.33-16.58-6.33-22.91,0-6.33,6.33-6.33,16.58,0,22.91l5.24,5.24,22.91,22.91,22.91-22.91,5.24-5.24c6.33-6.33,6.33-16.58,0-22.91Z"/>
  <path class="cls-1" d="m138.64,251.55c-4.45,0-8.11.03-11.76,0-3.4-.04-5.06-1.64-5.24-5.22-.58-11.3-.3-11.67,11.23-11.71,1.79,0,3.57,0,5.56,0v-17.25c-28.96-4.37-50.24-19.57-61.56-46.5-11.37-27.05-6.98-52.79,10.49-76.81-1.9-2.01-3.93-4.15-6.52-6.89-4.06,4.43-7.92,8.68-11.82,12.89-3.85,4.14-5.29,4.18-9.5.37-1.11-1.01-2.15-2.1-3.31-3.04-3.12-2.55-3.17-5.11-.41-8.04,4.23-4.48,8.31-9.1,12.4-13.61-4.73-4.46-9.39-8.85-14.21-13.4,0,4.23-.15,8.96.04,13.67.18,4.38-1.43,6.35-6.05,6.39-10.84.1-10.94.15-10.94-10.55,0-9.83-.05-19.67.02-29.5.05-7.76,2.88-10.62,10.52-10.65,11.17-.05,22.33-.04,33.5,0,6,.02,6.68.72,6.74,6.55.02,1.33-.11,2.68.02,4,.48,4.9-1.99,6.56-6.55,6.39-4.48-.16-8.96-.03-12.84-.03,4.11,4.02,8.37,8.17,12.87,12.57,2.35-2.54,5.79-6.12,9.08-9.84,2.62-2.96,5.07-3.09,8.13-.5,8.28,6.99,8.4,7.64,1.18,15.55-2.44,2.68-4.87,5.38-7.57,8.36,2.61,2.41,4.92,4.54,7.36,6.79,31.49-21.66,63.16-21.92,94.86-.11,10.51-10.71,21.19-21.58,32.18-32.78-4.61,0-9.35-.1-14.07.03-4.46.12-6.2-1.85-6.21-6.32-.03-10.72-.17-10.72,10.74-10.72,10,0,20-.06,30,.02,7.11.06,9.96,2.94,10,10.07.06,11.5-.1,23,.07,34.5.07,4.58-1.84,6.13-6.29,6.13-10.71,0-10.71.15-10.71-10.76,0-3.15,0-6.3,0-8.56-10.54,10.39-21.34,21.05-32.45,32,16.64,22.57,21.03,48.37,9.92,75.38-11.13,27.05-32.29,42.43-61.58,46.94v17.23c3.29,0,6.42-.03,9.54,0,6.14.06,7.03.93,7.1,6.88.01,1,.01,2,0,3-.06,6.08-.89,6.93-6.96,6.99-3.13.03-6.27,0-9.99,0,0,3.95-.1,7.4.03,10.84.16,4.17-1.56,6.32-5.88,6.06-.17,0-.33,0-.5,0q-10.63.25-10.64-10.2c0-1.97,0-3.93,0-6.6Zm8.57-169.27c-32.69-.04-59.24,26.3-59.37,58.91-.14,32.95,26.28,59.58,59.15,59.63,32.92.05,59.44-26.49,59.36-59.4-.07-32.7-26.47-59.09-59.14-59.13Z"/>
</svg>